# xmcd
#
# Track frame offsets:
# 150
# 15404
# 38267
# 53419
# 80083
# 96638
# 109339
# 126977
# 138318
# 155131
# 184979
# 202206
# 217771
# 233926
# 248398
# 263938
#
# Disc length: 3685 seconds
#
# Revision: 0
# Processed by: cddbd v1.4b42PL1 Copyright (c) Steve Scherf et al.
# Submitted via: Audion 2.5.0 (http://www.panic.com/audion/)
#
DISCID=de0e6310
DTITLE=various artist - Mix music 2001
DYEAR=1900
DGENRE=
TTITLE0=Bomba
TTITLE1=la lune pleure
TTITLE2=Allstar
TTITLE3=allegria
TTITLE4=Anastasia
TTITLE5=Broadway
TTITLE6=larger than life
TTITLE7=tomorrow
TTITLE8=Mortal Kombat
TTITLE9=Everithing I do
TTITLE10=Foot lose
TTITLE11=les rois du monde 
TTITLE12=etc.
TTITLE13=L'agrès
TTITLE14=kung fu fighting
TTITLE15=Buffy&Angel love song
EXTD=
EXTT0=
EXTT1=
EXTT2=
EXTT3=
EXTT4=
EXTT5=
EXTT6=
EXTT7=
EXTT8=
EXTT9=
EXTT10=
EXTT11=
EXTT12=
EXTT13=
EXTT14=
EXTT15=
PLAYORDER=
